<svg width="26" height="26" viewBox="0 0 26 26" fill="none" xmlns="http://www.w3.org/2000/svg">
<g clip-path="url(#clip0)">
<path d="M24 24.5C24.2761 24.5 24.5 24.2761 24.5 24V19.5C24.5 19.2239 24.2761 19 24 19C23.7239 19 23.5 19.2239 23.5 19.5V23.5H19.5C19.2239 23.5 19 23.7239 19 24C19 24.2761 19.2239 24.5 19.5 24.5H24ZM12.6464 13.3536L23.6464 24.3536L24.3536 23.6464L13.3536 12.6464L12.6464 13.3536Z" fill="#D7ECF4"/>
<path d="M24.5 2C24.5 1.72386 24.2761 1.5 24 1.5L19.5 1.5C19.2239 1.5 19 1.72386 19 2C19 2.27614 19.2239 2.5 19.5 2.5H23.5V6.5C23.5 6.77614 23.7239 7 24 7C24.2761 7 24.5 6.77614 24.5 6.5V2ZM13.3536 13.3536L24.3536 2.35355L23.6464 1.64645L12.6464 12.6464L13.3536 13.3536Z" fill="#D7ECF4"/>
<path d="M1.5 24C1.5 24.2761 1.72386 24.5 2 24.5H6.5C6.77614 24.5 7 24.2761 7 24C7 23.7239 6.77614 23.5 6.5 23.5H2.5V19.5C2.5 19.2239 2.27614 19 2 19C1.72386 19 1.5 19.2239 1.5 19.5L1.5 24ZM12.6464 12.6464L1.64645 23.6464L2.35355 24.3536L13.3536 13.3536L12.6464 12.6464Z" fill="#D7ECF4"/>
<path d="M2 1.5C1.72386 1.5 1.5 1.72386 1.5 2L1.5 6.5C1.5 6.77614 1.72386 7 2 7C2.27614 7 2.5 6.77614 2.5 6.5V2.5H6.5C6.77614 2.5 7 2.27614 7 2C7 1.72386 6.77614 1.5 6.5 1.5L2 1.5ZM13.3536 12.6464L2.35355 1.64645L1.64645 2.35355L12.6464 13.3536L13.3536 12.6464Z" fill="#D7ECF4"/>
</g>
<defs>
<clipPath id="clip0">
<rect width="26" height="26" fill="white"/>
</clipPath>
</defs>
</svg>
